<svg fill="none" height="128" viewBox="0 0 32 128" width="32" xmlns="http://www.w3.org/2000/svg"><g fill="#000"><path d="m13 16c0 .5523-.4477 1-1 1s-1-.4477-1-1 .4477-1 1-1 1 .4477 1 1z"/><path d="m17 16c0 .5523-.4477 1-1 1s-1-.4477-1-1 .4477-1 1-1 1 .4477 1 1z"/><path d="m17 19c0 .5523-.4477 1-1 1s-1-.4477-1-1 .4477-1 1-1 1 .4477 1 1z"/><path d="m13 19c0 .5523-.4477 1-1 1s-1-.4477-1-1 .4477-1 1-1 1 .4477 1 1z"/><path clip-rule="evenodd" d="m13.2491 10.5408c.5593-.3533 1.2074-.5408 1.869-.5408h6.3819c.8284 0 1.5.6716 1.5 1.5v5.8193c0 .5766-.2486 1.1251-.6827 1.505l-3.2055 2.8048c-.2734.2392-.6236.3709-.987.3709h-7.6273c-.82998 0-1.4975-.6732-1.4975-1.5v-6.4488c0-.5147.26386-.9934.69901-1.2683zm1.869.4592c-.4726 0-.9355.1339-1.335.3863l-2.5551 1.6137h7.1118l2.8-2zm2.8819 3h-7.9974c-.0017.0169-.0026.034-.0026.0512v6.4488c0 .2777.223.5.4975.5h7.5025zm1 6.3981 2.6588-2.3264c.2169-.1898.3412-.4639.3412-.7524v-5.7048l-3 2.1429z" fill-rule="evenodd"/><path d="m13 48c0 .5523-.4477 1-1 1s-1-.4477-1-1 .4477-1 1-1 1 .4477 1 1z" fill-opacity=".8"/><path d="m17 48c0 .5523-.4477 1-1 1s-1-.4477-1-1 .4477-1 1-1 1 .4477 1 1z" fill-opacity=".8"/><path d="m17 51c0 .5523-.4477 1-1 1s-1-.4477-1-1 .4477-1 1-1 1 .4477 1 1z" fill-opacity=".8"/><path d="m13 51c0 .5523-.4477 1-1 1s-1-.4477-1-1 .4477-1 1-1 1 .4477 1 1z" fill-opacity=".8"/><path clip-rule="evenodd" d="m13.2491 42.5408c.5593-.3533 1.2074-.5408 1.869-.5408h6.3819c.8284 0 1.5.6716 1.5 1.5v5.8193c0 .5766-.2486 1.1251-.6827 1.505l-3.2055 2.8048c-.2734.2392-.6236.3709-.987.3709h-7.6273c-.82998 0-1.4975-.6732-1.4975-1.5v-6.4488c0-.5147.26386-.9934.69901-1.2683zm1.869.4592c-.4726 0-.9355.1339-1.335.3863l-2.5551 1.6137h7.1118l2.8-2zm2.8819 3h-7.9974c-.0017.0169-.0026.034-.0026.0512v6.4488c0 .2777.223.5.4975.5h7.5025zm1 6.3981 2.6588-2.3264c.2169-.1898.3412-.4639.3412-.7524v-5.7048l-3 2.1429z" fill-opacity=".8" fill-rule="evenodd"/><path d="m13 80c0 .5523-.4477 1-1 1s-1-.4477-1-1 .4477-1 1-1 1 .4477 1 1z" fill-opacity=".3"/><path d="m17 80c0 .5523-.4477 1-1 1s-1-.4477-1-1 .4477-1 1-1 1 .4477 1 1z" fill-opacity=".3"/><path d="m17 83c0 .5523-.4477 1-1 1s-1-.4477-1-1 .4477-1 1-1 1 .4477 1 1z" fill-opacity=".3"/><path d="m13 83c0 .5523-.4477 1-1 1s-1-.4477-1-1 .4477-1 1-1 1 .4477 1 1z" fill-opacity=".3"/><path clip-rule="evenodd" d="m13.2491 74.5408c.5593-.3533 1.2074-.5408 1.869-.5408h6.3819c.8284 0 1.5.6716 1.5 1.5v5.8193c0 .5766-.2486 1.1251-.6827 1.505l-3.2055 2.8048c-.2734.2392-.6236.3709-.987.3709h-7.6273c-.82998 0-1.4975-.6732-1.4975-1.5v-6.4488c0-.5147.26386-.9934.69901-1.2683zm1.869.4592c-.4726 0-.9355.1339-1.335.3863l-2.5551 1.6137h7.1118l2.8-2zm2.8819 3h-7.9974c-.0017.0169-.0026.034-.0026.0512v6.4488c0 .2777.223.5.4975.5h7.5025zm1 6.3981 2.6588-2.3264c.2169-.1898.3412-.4639.3412-.7524v-5.7048l-3 2.1429z" fill-opacity=".3" fill-rule="evenodd"/></g><path d="m13 112c0 .552-.4477 1-1 1s-1-.448-1-1 .4477-1 1-1 1 .448 1 1z" fill="#18a0fb"/><path d="m17 112c0 .552-.4477 1-1 1s-1-.448-1-1 .4477-1 1-1 1 .448 1 1z" fill="#18a0fb"/><path d="m17 115c0 .552-.4477 1-1 1s-1-.448-1-1 .4477-1 1-1 1 .448 1 1z" fill="#18a0fb"/><path d="m13 115c0 .552-.4477 1-1 1s-1-.448-1-1 .4477-1 1-1 1 .448 1 1z" fill="#18a0fb"/><path clip-rule="evenodd" d="m13.2491 106.541c.5593-.353 1.2074-.541 1.869-.541h6.3819c.8284 0 1.5.672 1.5 1.5v5.819c0 .577-.2486 1.125-.6827 1.505l-3.2055 2.805c-.2734.239-.6236.371-.987.371h-7.6273c-.82998 0-1.4975-.673-1.4975-1.5v-6.449c0-.515.26386-.993.69901-1.268zm1.869.459c-.4726 0-.9355.134-1.335.386l-2.5551 1.614h7.1118l2.8-2zm2.8819 3h-7.9974c-.0017.017-.0026.034-.0026.051v6.449c0 .278.223.5.4975.5h7.5025zm1 6.398 2.6588-2.326c.2169-.19.3412-.464.3412-.753v-5.705l-3 2.143z" fill="#18a0fb" fill-rule="evenodd"/></svg>