<svg fill="none" height="128" viewBox="0 0 32 128" width="32" xmlns="http://www.w3.org/2000/svg"><g clip-rule="evenodd" fill-rule="evenodd"><g fill="#000"><path d="m10.8966 9-1.8966 5h1.0695l.3793-1h2.1331l.3381 1h1.0556l-1.6904-5zm1.3472 3-.6671-1.9734-.7486 1.9734z"/><path d="m12.5534 19h-3.0534v-1h4.5v.9789l-3.0679 3.0211h3.0679v1h-4.5v-.9932z"/><path d="m21 10.2071v12.7929h-1v-12.7929l-2.1464 2.1465-.7071-.7072 3.3535-3.35351 3.3536 3.35351-.7071.7072z"/><path d="m10.8966 41-1.8966 5h1.0695l.3793-1h2.1331l.3381 1h1.0556l-1.6904-5zm1.3472 3-.6671-1.9734-.7486 1.9734z" fill-opacity=".8"/><path d="m12.5534 51h-3.0534v-1h4.5v.9789l-3.0679 3.0211h3.0679v1h-4.5v-.9932z" fill-opacity=".8"/><path d="m21 42.2071v12.7929h-1v-12.7929l-2.1464 2.1465-.7071-.7072 3.3535-3.3535 3.3536 3.3535-.7071.7072z" fill-opacity=".8"/><path d="m10.8966 73-1.8966 5h1.0695l.3793-1h2.1331l.3381 1h1.0556l-1.6904-5zm1.3472 3-.6671-1.9734-.7486 1.9734z" fill-opacity=".3"/><path d="m12.5534 83h-3.0534v-1h4.5v.9789l-3.0679 3.0211h3.0679v1h-4.5v-.9932z" fill-opacity=".3"/><path d="m21 74.2071v12.7929h-1v-12.7929l-2.1464 2.1465-.7071-.7072 3.3535-3.3535 3.3536 3.3535-.7071.7072z" fill-opacity=".3"/></g><path d="m10.8966 105-1.8966 5h1.0695l.3793-1h2.1331l.3381 1h1.0556l-1.6904-5zm1.3472 3-.6671-1.973-.7486 1.973z" fill="#18a0fb"/><path d="m12.5534 115h-3.0534v-1h4.5v.979l-3.0679 3.021h3.0679v1h-4.5v-.993z" fill="#18a0fb"/><path d="m21 106.207v12.793h-1v-12.793l-2.1464 2.147-.7071-.708 3.3535-3.353 3.3536 3.353-.7071.708z" fill="#18a0fb"/></g></svg>