<svg fill="none" height="128" viewBox="0 0 32 128" width="32" xmlns="http://www.w3.org/2000/svg"><g clip-rule="evenodd" fill-rule="evenodd"><g fill="#000"><path d="m20.5498 12h-9.5498v-1h9.5498c.9506 0 1.365 1.2016.6163 1.7875l-9.216 7.2125h8.3428l-1.1465-1.1464.7071-.7072 2.3536 2.3536-2.3536 2.3536-.7071-.7072 1.1465-1.1464h-8.3428c-.9506 0-1.3649-1.2016-.6163-1.7875z"/><path d="m20.5498 44h-9.5498v-1h9.5498c.9506 0 1.365 1.2016.6163 1.7875l-9.216 7.2125h8.3428l-1.1465-1.1464.7071-.7072 2.3536 2.3536-2.3536 2.3536-.7071-.7072 1.1465-1.1464h-8.3428c-.9506 0-1.3649-1.2016-.6163-1.7875z" fill-opacity=".8"/><path d="m20.5498 76h-9.5498v-1h9.5498c.9506 0 1.365 1.2016.6163 1.7875l-9.216 7.2125h8.3428l-1.1465-1.1464.7071-.7072 2.3536 2.3536-2.3536 2.3536-.7071-.7072 1.1465-1.1464h-8.3428c-.9506 0-1.3649-1.2016-.6163-1.7875z" fill-opacity=".3"/></g><path d="m20.5498 108h-9.5498v-1h9.5498c.9506 0 1.365 1.202.6163 1.788l-9.216 7.212h8.3428l-1.1465-1.146.7071-.708 2.3536 2.354-2.3536 2.354-.7071-.708 1.1465-1.146h-8.3428c-.9506 0-1.3649-1.202-.6163-1.788z" fill="#18a0fb"/></g></svg>