<svg width="32" height="128" viewBox="0 0 32 128" fill="none" xmlns="http://www.w3.org/2000/svg">
<path d="M15.6464 22.3536C15.8417 22.5488 16.1583 22.5488 16.3536 22.3536L19.5355 19.1716C19.7308 18.9763 19.7308 18.6597 19.5355 18.4645C19.3403 18.2692 19.0237 18.2692 18.8284 18.4645L16 21.2929L13.1716 18.4645C12.9763 18.2692 12.6597 18.2692 12.4645 18.4645C12.2692 18.6597 12.2692 18.9763 12.4645 19.1716L15.6464 22.3536ZM15.5 10V22H16.5V10H15.5Z" fill="black"/>
<path d="M15.6464 54.3536C15.8417 54.5488 16.1583 54.5488 16.3536 54.3536L19.5355 51.1716C19.7308 50.9763 19.7308 50.6597 19.5355 50.4645C19.3403 50.2692 19.0237 50.2692 18.8284 50.4645L16 53.2929L13.1716 50.4645C12.9763 50.2692 12.6597 50.2692 12.4645 50.4645C12.2692 50.6597 12.2692 50.9763 12.4645 51.1716L15.6464 54.3536ZM15.5 42V54H16.5V42H15.5Z" fill="black" fill-opacity="0.8"/>
<path d="M15.6464 86.3536C15.8417 86.5488 16.1583 86.5488 16.3536 86.3536L19.5355 83.1716C19.7308 82.9763 19.7308 82.6597 19.5355 82.4645C19.3403 82.2692 19.0237 82.2692 18.8284 82.4645L16 85.2929L13.1716 82.4645C12.9763 82.2692 12.6597 82.2692 12.4645 82.4645C12.2692 82.6597 12.2692 82.9763 12.4645 83.1716L15.6464 86.3536ZM15.5 74V86H16.5V74H15.5Z" fill="black" fill-opacity="0.3"/>
<path d="M15.6464 118.354C15.8417 118.549 16.1583 118.549 16.3536 118.354L19.5355 115.172C19.7308 114.976 19.7308 114.66 19.5355 114.464C19.3403 114.269 19.0237 114.269 18.8284 114.464L16 117.293L13.1716 114.464C12.9763 114.269 12.6597 114.269 12.4645 114.464C12.2692 114.66 12.2692 114.976 12.4645 115.172L15.6464 118.354ZM15.5 106V118H16.5V106H15.5Z" fill="#18A0FB"/>
</svg>
