<svg fill="none" height="128" viewBox="0 0 32 128" width="32" xmlns="http://www.w3.org/2000/svg"><g clip-rule="evenodd" fill-rule="evenodd"><g fill="#000"><path d="m15.8536 8.64642 2.3535 2.35358-2.3535 2.3535-.7072-.7071 1.1465-1.1464h-2.2929c-.5033 0-1.2694.1551-1.8953.6057-.6005.4323-1.1047 1.1572-1.1047 2.3943v7.25h-1v-7.25c0-1.563.6624-2.5881 1.5203-3.2058.8325-.5993 1.8164-.7942 2.4797-.7942h2.2929l-1.1465-1.14647z"/><path d="m16.1464 23.1035-2.3535-2.3535 2.3535-2.3536.7072.7071-1.1465 1.1465h2.2929c.5033 0 1.2694-.1551 1.8953-.6058.6005-.4323 1.1047-1.1572 1.1047-2.3942v-7.25004h1v7.25004c0 1.5629-.6624 2.588-1.5203 3.2057-.8325.5994-1.8164.7943-2.4797.7943h-2.2929l1.1465 1.1464z"/><path d="m15.8536 40.6465 2.3535 2.3535-2.3535 2.3536-.7072-.7071 1.1465-1.1465h-2.2929c-.5033 0-1.2694.1551-1.8953.6058-.6005.4323-1.1047 1.1572-1.1047 2.3942v7.25h-1v-7.25c0-1.5629.6624-2.588 1.5203-3.2057.8325-.5994 1.8164-.7943 2.4797-.7943h2.2929l-1.1465-1.1464z" fill-opacity=".8"/><path d="m16.1464 55.1035-2.3535-2.3535 2.3535-2.3536.7072.7071-1.1465 1.1465h2.2929c.5033 0 1.2694-.1551 1.8953-.6058.6005-.4323 1.1047-1.1572 1.1047-2.3942v-7.25h1v7.25c0 1.5629-.6624 2.588-1.5203 3.2057-.8325.5994-1.8164.7943-2.4797.7943h-2.2929l1.1465 1.1464z" fill-opacity=".8"/><path d="m15.8536 72.6465 2.3535 2.3535-2.3535 2.3536-.7072-.7071 1.1465-1.1465h-2.2929c-.5033 0-1.2694.1551-1.8953.6058-.6005.4323-1.1047 1.1572-1.1047 2.3942v7.25h-1v-7.25c0-1.5629.6624-2.588 1.5203-3.2057.8325-.5994 1.8164-.7943 2.4797-.7943h2.2929l-1.1465-1.1464z" fill-opacity=".3"/><path d="m16.1464 87.1035-2.3535-2.3535 2.3535-2.3536.7072.7071-1.1465 1.1465h2.2929c.5033 0 1.2694-.1551 1.8953-.6058.6005-.4323 1.1047-1.1572 1.1047-2.3942v-7.25h1v7.25c0 1.5629-.6624 2.588-1.5203 3.2057-.8325.5994-1.8164.7943-2.4797.7943h-2.2929l1.1465 1.1464z" fill-opacity=".3"/></g><path d="m15.8536 104.646 2.3535 2.354-2.3535 2.354-.7072-.708 1.1465-1.146h-2.2929c-.5033 0-1.2694.155-1.8953.606-.6005.432-1.1047 1.157-1.1047 2.394v7.25h-1v-7.25c0-1.563.6624-2.588 1.5203-3.206.8325-.599 1.8164-.794 2.4797-.794h2.2929l-1.1465-1.146z" fill="#18a0fb"/><path d="m16.1464 119.104-2.3535-2.354 2.3535-2.354.7072.708-1.1465 1.146h2.2929c.5033 0 1.2694-.155 1.8953-.606.6005-.432 1.1047-1.157 1.1047-2.394v-7.25h1v7.25c0 1.563-.6624 2.588-1.5203 3.206-.8325.599-1.8164.794-2.4797.794h-2.2929l1.1465 1.146z" fill="#18a0fb"/></g></svg>