<svg fill="none" height="128" viewBox="0 0 32 128" width="32" xmlns="http://www.w3.org/2000/svg"><g clip-rule="evenodd" fill-rule="evenodd"><g fill="#000"><path d="m20.4498 12h-10.4498v-1h10.4498c.9709 0 1.3723 1.2442.5843 1.8115l-9.9839 7.1885h9.2427l-1.6465-1.6464.7072-.7072 2.8535 2.8536-2.8535 2.8536-.7072-.7072 1.6465-1.6464h-9.2427c-.9709 0-1.37227-1.2442-.5843-1.8115z"/><path d="m20.4498 44h-10.4498v-1h10.4498c.9709 0 1.3723 1.2442.5843 1.8115l-9.9839 7.1885h9.2427l-1.6465-1.6464.7072-.7072 2.8535 2.8536-2.8535 2.8536-.7072-.7072 1.6465-1.6464h-9.2427c-.9709 0-1.37227-1.2442-.5843-1.8115z" fill-opacity=".8"/><path d="m20.4498 76h-10.4498v-1h10.4498c.9709 0 1.3723 1.2442.5843 1.8115l-9.9839 7.1885h9.2427l-1.6465-1.6464.7072-.7072 2.8535 2.8536-2.8535 2.8536-.7072-.7072 1.6465-1.6464h-9.2427c-.9709 0-1.37227-1.2442-.5843-1.8115z" fill-opacity=".3"/></g><path d="m20.4498 108h-10.4498v-1h10.4498c.9709 0 1.3723 1.244.5843 1.812l-9.9839 7.188h9.2427l-1.6465-1.646.7072-.708 2.8535 2.854-2.8535 2.854-.7072-.708 1.6465-1.646h-9.2427c-.9709 0-1.37227-1.244-.5843-1.812z" fill="#18a0fb"/></g></svg>