<svg width="32" height="128" viewBox="0 0 32 128" fill="none" xmlns="http://www.w3.org/2000/svg">
<path d="M22.3536 16.3536C22.5488 16.1583 22.5488 15.8417 22.3536 15.6464L19.1716 12.4645C18.9763 12.2692 18.6597 12.2692 18.4645 12.4645C18.2692 12.6597 18.2692 12.9763 18.4645 13.1716L21.2929 16L18.4645 18.8284C18.2692 19.0237 18.2692 19.3403 18.4645 19.5355C18.6597 19.7308 18.9763 19.7308 19.1716 19.5355L22.3536 16.3536ZM10 16.5H22V15.5H10V16.5Z" fill="black"/>
<path d="M22.3536 48.3536C22.5488 48.1583 22.5488 47.8417 22.3536 47.6464L19.1716 44.4645C18.9763 44.2692 18.6597 44.2692 18.4645 44.4645C18.2692 44.6597 18.2692 44.9763 18.4645 45.1716L21.2929 48L18.4645 50.8284C18.2692 51.0237 18.2692 51.3403 18.4645 51.5355C18.6597 51.7308 18.9763 51.7308 19.1716 51.5355L22.3536 48.3536ZM10 48.5H22V47.5H10V48.5Z" fill="black" fill-opacity="0.8"/>
<path d="M22.3536 80.3536C22.5488 80.1583 22.5488 79.8417 22.3536 79.6464L19.1716 76.4645C18.9763 76.2692 18.6597 76.2692 18.4645 76.4645C18.2692 76.6597 18.2692 76.9763 18.4645 77.1716L21.2929 80L18.4645 82.8284C18.2692 83.0237 18.2692 83.3403 18.4645 83.5355C18.6597 83.7308 18.9763 83.7308 19.1716 83.5355L22.3536 80.3536ZM10 80.5H22V79.5H10V80.5Z" fill="black" fill-opacity="0.3"/>
<path d="M22.3536 112.354C22.5488 112.158 22.5488 111.842 22.3536 111.646L19.1716 108.464C18.9763 108.269 18.6597 108.269 18.4645 108.464C18.2692 108.66 18.2692 108.976 18.4645 109.172L21.2929 112L18.4645 114.828C18.2692 115.024 18.2692 115.34 18.4645 115.536C18.6597 115.731 18.9763 115.731 19.1716 115.536L22.3536 112.354ZM10 112.5H22V111.5H10V112.5Z" fill="#18A0FB"/>
</svg>
